PathFileType	4	(X/Y/Z)	C:/Users/beibeiliu/ov580/test_trc/User1\sequence.4_training_dense_right.trc
DataRate	CameraRate	NumFrames	NumMarkers	Units	OrigDataRate	OrigDataStartFrame	OrigNumFrames
120	120	14	19	mm	120	157	251
Frame#	Time	ThumbCMC			ThumbMCP			ThumbIP			ThumbTip			IndexMCP			IndexPIP			IndexTip			MiddleMCP			MiddlePIP			MiddleTip			RingMCP			RingPIP			RingTip			PinkyMCP			PinkyPIP			PinkyTip			BackHand1			BackHand2			BackHand3	
		X0	Y0	Z0	X1	Y1	Z1	X2	Y2	Z2	X3	Y3	Z3	X4	Y4	Z4	X5	Y5	Z5	X6	Y6	Z6	X7	Y7	Z7	X8	Y8	Z8	X9	Y9	Z9	X10	Y10	Z10	X11	Y11	Z11	X12	Y12	Z12	X13	Y13	Z13	X14	Y14	Z14	X15	Y15	Z15	X16	Y16	Z16	X17	Y17	Z17	X18	Y18	Z18	
156	1.3	142.058	90.454	23.1651	118.104	64.6025	6.29517	123.075	36.5556	-9.09997	136.058	11.7716	-11.0518	135.964	43.1192	-46.7957	115.819	23.2465	-28.7591	119.99	46.2392	-5.2223	153.5	24.1419	-44.846	128.088	5.3012	-35.6026	121.119	10.2415	6.96134	160.948	9.74749	-26.7473	139.917	5.25202	-0.4851	150.828	31.3718	16.7603	178.308	4.73824	-3.54573	154.235	7.51461	13.0137	157.862	38.0594	29.7787	199.823	55.8307	-4.2362	207.415	76.0539	27.864	181.595	90.3006	3.36686	
157	1.30833	138.447	90.4388	22.7313	110.826	59.0274	8.23056	106.462	30.5637	-3.63049	121.73	5.51776	-2.61714	131.502	44.1964	-43.9818	106.883	27.1219	-27.4209	117.969	50.9106	-1.02822	144.861	22.7742	-47.5968	121.131	6.027	-28.5725	124.918	24.3499	6.03784	156.987	5.68203	-22.5675	131.76	3.5423	-1.43549	144.852	28.8945	19.4579	169.1	0.476671	-1.85317	145.337	7.27011	14.5868	149.956	35.2133	28.9144	197.907	52.7267	-0.658024	206.838	72.9336	26.4499	177.304	87.7896	1.84388	
158	1.31667	136.257	86.1903	16.7506	105.763	61.4529	12.8012	98.6815	32.2349	0.397153	105.851	1.78712	-1.7719	122.649	40.8161	-43.5883	100.425	29.0101	-24.5273	117.234	50.1923	2.90766	139.556	19.7568	-42.513	112.707	8.71772	-22.0978	127.226	32.9034	7.10405	146.922	4.65003	-21.9364	123.341	5.44268	0.169285	137.774	35.1672	17.6554	159.665	-2.74561	0.679605	136.649	10.2461	17.6718	145.882	35.9361	31.4846	191.711	44.2515	-5.03942	200.85	65.3329	24.112	174.846	83.4728	-0.607271	
159	1.325	136.174	89.023	18.9118	107.429	61.1792	11.1293	95.008	38.0059	1.88433	97.1715	5.24382	-2.63356	115.615	41.9964	-41.9174	96.8208	29.9114	-21.5784	113.07	54.3414	2.95335	132.17	19.8229	-38.951	106.284	14.0224	-11.2271	124.665	37.4936	7.76094	138.903	5.84901	-20.4054	115.222	8.50044	4.62317	132.936	32.0789	19.9048	151.855	-1.06287	0.471909	129.698	9.47153	21.606	141.544	38.7425	26.6064	188.886	39.5854	-0.334221	200.767	56.1476	25.0283	177.519	75.334	-1.88968	
160	1.33333	137.357	84.3954	16.3085	100.532	66.3638	11.8525	85.614	42.6157	0.242637	86.4552	9.4941	-3.56801	112.261	44.13	-41.7443	92.383	33.1973	-20.0065	113.449	57.3104	3.25258	121.018	19.8191	-37.4652	98.4601	20.3142	-11.2777	121.422	40.4727	8.02562	128.336	3.66388	-19.4946	108.32	11.6706	4.27689	130.588	34.7363	18.8574	142.223	-3.81621	3.73808	123.431	9.94571	18.6393	136.7	36.5739	29.0738	184.124	38.2667	-0.33859	197.918	51.8116	24.2228	173.672	76.6599	-0.213721	
161	1.34167	136.889	88.4591	18.7712	99.623	68.7968	10.2697	83.4824	44.5918	-2.92598	79.6013	18.7225	-2.77984	110.854	45.9971	-42.389	89.0257	36.1426	-19.1291	111.362	59.595	1.41224	115.724	22.1588	-37.2781	95.5196	18.4324	-12.3695	116.528	45.395	7.66166	124.172	4.63795	-18.1029	103.044	13.3315	5.82598	122.889	33.7885	19.8373	134.286	-2.48982	3.76241	117.207	10.0539	22.8229	134.02	37.2699	31.0134	177.835	35.6442	-3.31289	196.234	52.4631	27.5576	174.489	74.9986	0.0909919	
162	1.35	138.416	87.9919	15.0634	99.0537	74.6155	8.37042	83.3622	52.1572	-2.07982	76.2747	24.7408	-2.59811	110.89	46.8276	-42.1802	85.7454	39.6759	-21.3156	103.241	61.147	-0.136725	112.113	21.6347	-36.7546	88.234	25.8869	-13.8106	117.469	48.9201	6.18775	116.17	7.28918	-19.0641	95.5332	17.3177	3.3127	122.157	37.7893	17.2517	129.438	-5.73093	4.64901	110.008	13.8118	20.6327	131.768	38.0393	27.8108	174.035	26.7682	-1.8418	193.793	43.7425	26.6491	170.94	69.9736	-2.89174	
163	1.35833	139.101	90.9653	15.1367	99.9674	76.1356	4.38243	82.2127	53.534	-4.63193	72.1889	28.4142	-3.8418	102.908	49.9787	-45.0908	82.2477	46.388	-23.7196	107.43	64.4074	-1.42527	108.97	25.2754	-39.1736	85.0935	27.5551	-13.3682	111.235	49.1562	4.43761	110.238	6.39165	-19.0179	91.2093	18.681	5.5172	115.435	35.6931	19.348	119.471	-2.64013	3.12169	103.604	16.4739	18.1142	127.699	39.8478	27.3428	170.42	26.6394	-1.69787	189.173	39.1334	24.3986	172.036	66.4296	0.513764	
164	1.36667	140.719	87.2935	13.3451	100.162	80.0351	3.60229	79.5417	57.9739	-8.32851	70.1056	35.3829	-5.13491	105.379	49.0477	-46.5068	79.9759	54.6737	-24.3374	103.545	66.9595	-4.47763	103.14	27.5112	-39.4892	81.8642	36.2508	-15.7183	114.363	50.2791	3.47869	103.797	9.81161	-20.1475	86.8508	24.0325	3.28942	114.522	39.1723	17.6977	112.836	-1.87859	1.4417	96.1637	16.3436	20.3577	124.73	39.5825	27.882	166.431	20.9944	-0.726103	185.715	34.9973	29.6604	171.214	62.4257	0.688277	
165	1.375	145.165	87.3674	13.3374	102.997	83.9563	-0.547221	79.3581	64.0824	-15.1473	70.5382	38.1539	-11.6721	109.814	56.8637	-49.6527	83.322	61.3395	-28.1556	107.992	71.4614	-8.106	106.356	27.3274	-40.3184	83.4101	41.7846	-16.8352	115.956	50.9425	1.42707	101.076	12.3729	-22.1789	83.64	32.0532	-4.78893	112.192	40.8072	15.5399	104.124	6.65554	-2.93554	92.5259	24.4072	12.1061	121.091	40.5641	27.0148	163.603	21.2685	1.92521	178.6	28.6934	30.0641	171.795	57.8395	0.78691	
166	1.38333	151.671	85.7618	9.98194	116.167	88.6433	-10.1216	94.6233	77.7695	-24.985	80.3747	52.7258	-26.3897	125.875	58.0765	-54.2681	99.7018	69.7734	-37.8336	122.781	77.0385	-14.0881	115.262	38.5996	-49.7482	93.5655	56.6918	-30.7803	125.48	59.5915	-5.67665	106.655	21.8255	-31.8315	88.0032	42.3273	-12.3592	113.023	48.124	8.09143	106.842	12.4207	-10.9669	91.1116	34.8412	3.52339	119.075	44.9352	16.0406	158.306	18.8919	3.122	169.358	24.7573	36.1265	177.537	52.3035	7.223	
167	1.39167	165.189	87.4792	19.0796	145.996	97.5378	-14.9042	130.71	87.2607	-44.6084	110.255	70.0345	-48.2449	164.946	63.0309	-56.0543	138.062	80.363	-56.2588	148.041	81.5016	-18.4186	147.382	45.1108	-55.525	122.457	66.8753	-49.8677	136.289	62.8737	-9.84663	125.165	32.5385	-44.2387	107.802	61.1211	-33.7617	119.803	56.3323	-3.51229	109.725	25.0598	-26.0961	102.607	51.9201	-18.4032	120.661	50.8581	8.78989	151.827	16.7052	9.29814	150.178	21.3961	46.6824	176.826	42.4135	23.2814	
168	1.4	170.068	85.7035	27.2882	159.58	93.3425	-11.2148	153.224	89.3052	-38.2475	136.097	75.3571	-55.8799	186.54	56.2162	-45.0791	161.07	77.6052	-53.9012	161.863	81.6641	-20.1283	167.002	40.7101	-50.5604	145.06	67.434	-55.6101	143.728	65.6698	-15.4697	139.109	32.136	-47.0847	122.405	63.4018	-40.645	131.292	60.1719	-7.81016	117.882	30.0033	-35.1145	115.938	56.6734	-26.5782	124.305	56.9602	4.07295	151.223	14.5136	14.6017	145.173	21.4769	45.9133	173.43	39.5152	33.6055	
169	1.40833	171.5	83.2355	30.8234	166.042	94.1801	-8.8526	162.374	89.1653	-36.0149	146.015	75.3195	-61.6251	191.941	51.8748	-44.13	174.154	73.0621	-53.8912	168.669	81.4194	-20.6063	176.513	37.3675	-46.2815	154.713	66.5853	-52.4603	151.131	65.704	-13.0712	150.266	29.9217	-43.6172	133.141	60.3705	-42.9327	136.798	59.5077	-8.55288	126.92	26.7402	-34.664	120.262	52.4481	-32.3932	130.778	56.0036	2.82868	154.586	12.2302	17.4075	144.363	25.8395	52.8529	175.087	40.6297	38.6089	
